<svg xmlns="http://www.w3.org/2000/svg" width="77.008" height="15.781" viewBox="0 0 77.008 15.781">
  <g id="logo" transform="translate(0 0)">
    <g id="그룹_13" data-name="그룹 13" transform="translate(19.017 1.962)">
      <path id="패스_27" data-name="패스 27" d="M283.288,398.63a3.864,3.864,0,1,1,2.961-6.346.3.3,0,0,0,.417.061l1.164-.835a.3.3,0,0,0,.064-.413,5.89,5.89,0,1,0-4.607,9.56Z" transform="translate(-277.397 -388.875)" fill="#fff"/>
      <path id="패스_28" data-name="패스 28" d="M283.288,390.9a3.864,3.864,0,1,0,2.961,6.346.3.3,0,0,1,.417-.061l1.164.835a.3.3,0,0,1,.064.414,5.89,5.89,0,1,1-4.607-9.56Z" transform="translate(-277.397 -388.875)" fill="#fff"/>
    </g>
    <g id="logo-2" data-name="logo">
      <path id="패스_29" data-name="패스 29" d="M264.551,391.812l-.705,2.857H265.3Z" transform="translate(-256.608 -387.297)" fill="#fff"/>
      <path id="패스_30" data-name="패스 30" d="M269.252,399.81a7.877,7.877,0,1,0-1.87,1.516c.072-.043.141-.091.211-.135l1.669.666-.283-1.768C269.072,400,269.166,399.907,269.252,399.81ZM262.583,389.5h1.738l2.425,7.414h-1.719l-.444-1.575H262.4l-.435,1.575h-1.71Zm5.384,8.951-9.031,1.042.361-.666,8.767-.639Z" transform="translate(-255.519 -386.618)" fill="#fff"/>
    </g>
    <path id="패스_31" data-name="패스 31" d="M326.995,398.061l-1.32-.119a.354.354,0,0,0-.376.207h0a2.731,2.731,0,0,1-1.469,1.213,2.41,2.41,0,0,1-1.674.058,2.187,2.187,0,0,1-1.142-.956.094.094,0,0,1,.066-.138h0l5.835-2.123a.3.3,0,0,0,.18-.385h0l-.03-.09a4.5,4.5,0,0,0-2.269-2.672,4.228,4.228,0,0,0-3.4-.088,4.078,4.078,0,0,0-2.436,2.21,4.3,4.3,0,0,0-.071,3.356,4.158,4.158,0,0,0,2.191,2.459,4.263,4.263,0,0,0,3.383.07,4.879,4.879,0,0,0,1.875-1.153,4,4,0,0,0,.9-1.509A.3.3,0,0,0,326.995,398.061Zm-4.9-3.487a2.337,2.337,0,0,1,1.461-.073,2.069,2.069,0,0,1,1.064.688.092.092,0,0,1-.053.136l-3.951,1.438h0c-.063.01-.118-.03-.111-.115a2.5,2.5,0,0,1,.332-1.1A2.471,2.471,0,0,1,322.091,394.574Z" transform="translate(-263.767 -387.408)" fill="#fff"/>
    <path id="패스_32" data-name="패스 32" d="M316.753,393.956v-1.18a.3.3,0,0,0-.3-.3h-.929v-2.735a.3.3,0,0,0-.294-.3h-1.479a.3.3,0,0,0-.293.29v2.743H312.7a.3.3,0,0,0-.3.3v1.184a.3.3,0,0,0,.3.3h.76v6.163a.3.3,0,0,0,.3.291h1.466a.3.3,0,0,0,.3-.3v-6.156h.927A.3.3,0,0,0,316.753,393.956Z" transform="translate(-262.959 -386.988)" fill="#fff"/>
    <path id="패스_33" data-name="패스 33" d="M343.46,394.053v-1.181a.3.3,0,0,0-.3-.3h-.929v-2.736a.3.3,0,0,0-.295-.3h-1.478a.3.3,0,0,0-.293.291v2.743h-.762a.3.3,0,0,0-.3.3v1.185a.3.3,0,0,0,.3.3h.761v6.163a.3.3,0,0,0,.3.291h1.466a.3.3,0,0,0,.3-.3v-6.156h.927A.3.3,0,0,0,343.46,394.053Z" transform="translate(-266.452 -387)" fill="#fff"/>
    <path id="패스_34" data-name="패스 34" d="M295.307,401.4a4.386,4.386,0,1,1,4.386-4.386A4.391,4.391,0,0,1,295.307,401.4Zm0-6.743a2.357,2.357,0,1,0,2.357,2.357A2.359,2.359,0,0,0,295.307,394.658Z" transform="translate(-260.149 -387.404)" fill="#fff"/>
    <path id="패스_35" data-name="패스 35" d="M309.575,394.74a2.194,2.194,0,0,0-.487-.847,4.21,4.21,0,0,0-.623-.572,3.471,3.471,0,0,0-.689-.4,3.014,3.014,0,0,0-.408-.138c-.124-.033-.25-.061-.374-.083s-.237-.039-.343-.05a3.017,3.017,0,0,0-.305-.017,4.062,4.062,0,0,0-1.5.264,3.333,3.333,0,0,0-1.177.79,3.745,3.745,0,0,0-.714,1.133,3.5,3.5,0,0,0-.24,1.292v4.553a.3.3,0,0,0,.3.3h1.361a.3.3,0,0,0,.3-.3v-4.495a2.355,2.355,0,0,1,.157-.591,2.006,2.006,0,0,1,.321-.524,1.212,1.212,0,0,1,.444-.34,1.554,1.554,0,0,1,.621-.115,1.512,1.512,0,0,1,.652.127,1,1,0,0,1,.412.367,2.006,2.006,0,0,1,.265.55,2.049,2.049,0,0,1,.089.593v4.428a.3.3,0,0,0,.3.3h1.485a.3.3,0,0,0,.3-.3v-4.835A3.574,3.574,0,0,0,309.575,394.74Z" transform="translate(-261.691 -387.405)" fill="#fff"/>
    <path id="패스_36" data-name="패스 36" d="M336.818,394.74a2.2,2.2,0,0,0-.487-.847,4.21,4.21,0,0,0-.623-.572,3.493,3.493,0,0,0-.688-.4,3.1,3.1,0,0,0-.408-.138c-.125-.033-.25-.061-.375-.083s-.236-.039-.343-.05a2.99,2.99,0,0,0-.305-.017,4.061,4.061,0,0,0-1.5.264,3.332,3.332,0,0,0-1.177.79,3.744,3.744,0,0,0-.713,1.133,3.485,3.485,0,0,0-.241,1.292v4.553a.3.3,0,0,0,.3.3h1.36a.3.3,0,0,0,.3-.3v-4.495a2.361,2.361,0,0,1,.157-.591,1.99,1.99,0,0,1,.322-.524,1.2,1.2,0,0,1,.443-.34,1.557,1.557,0,0,1,.621-.115,1.512,1.512,0,0,1,.652.127,1,1,0,0,1,.412.367,2.009,2.009,0,0,1,.265.55,2.052,2.052,0,0,1,.089.593v4.428a.3.3,0,0,0,.3.3h1.486a.3.3,0,0,0,.3-.3v-4.835A3.575,3.575,0,0,0,336.818,394.74Z" transform="translate(-265.254 -387.405)" fill="#fff"/>
  </g>
</svg>
