<svg xmlns="http://www.w3.org/2000/svg" width="108.244" height="22.426" viewBox="0 0 108.244 22.426">
  <g id="logo" transform="translate(0 0)">
    <g id="그룹_13" data-name="그룹 13" transform="translate(25.831 2.788)">
      <path id="패스_27" data-name="패스 27" d="M285.768,402.738a5.492,5.492,0,1,1,4.208-9.019.425.425,0,0,0,.593.087l1.654-1.187a.425.425,0,0,0,.091-.587,8.37,8.37,0,1,0-6.547,13.585Z" transform="translate(-277.397 -388.875)" fill="#fff"/>
      <path id="패스_28" data-name="패스 28" d="M285.768,391.754a5.492,5.492,0,1,0,4.208,9.019.426.426,0,0,1,.593-.087l1.654,1.187a.426.426,0,0,1,.091.588,8.371,8.371,0,1,1-6.547-13.587Z" transform="translate(-277.397 -388.875)" fill="#fff"/>
    </g>
    <g id="그룹_14" data-name="그룹 14">
      <path id="패스_29" data-name="패스 29" d="M264.848,391.812l-1,4.059h2.059Z" transform="translate(-253.56 -385.396)" fill="#fff"/>
      <path id="패스_30" data-name="패스 30" d="M275.036,405.365a11.195,11.195,0,1,0-2.657,2.154c.1-.061.2-.129.3-.192l2.372.946-.4-2.512C274.779,405.631,274.912,405.5,275.036,405.365Zm-9.478-14.645h2.471l3.446,10.537h-2.443l-.631-2.238h-3.1l-.618,2.238h-2.43Zm7.651,12.721-12.834,1.481.513-.946,12.459-.908Z" transform="translate(-255.519 -386.618)" fill="#fff"/>
    </g>
    <path id="패스_31" data-name="패스 31" d="M330.536,400.337l-1.876-.169a.5.5,0,0,0-.534.294h0a3.882,3.882,0,0,1-2.088,1.723,3.424,3.424,0,0,1-2.379.083,3.108,3.108,0,0,1-1.623-1.359.134.134,0,0,1,.094-.2h0l8.292-3.018a.428.428,0,0,0,.256-.547h0l-.043-.127a6.392,6.392,0,0,0-3.224-3.8,6.009,6.009,0,0,0-4.829-.125,5.8,5.8,0,0,0-3.462,3.141,6.111,6.111,0,0,0-.1,4.769,5.909,5.909,0,0,0,3.114,3.495,6.059,6.059,0,0,0,4.808.1,6.935,6.935,0,0,0,2.665-1.639,5.684,5.684,0,0,0,1.282-2.144A.427.427,0,0,0,330.536,400.337Zm-6.968-4.955a3.321,3.321,0,0,1,2.077-.1,2.94,2.94,0,0,1,1.512.977.131.131,0,0,1-.075.194l-5.615,2.043h0c-.09.014-.168-.042-.158-.163a3.556,3.556,0,0,1,.472-1.564A3.511,3.511,0,0,1,323.568,395.382Z" transform="translate(-241.877 -385.198)" fill="#fff"/>
    <path id="패스_32" data-name="패스 32" d="M318.586,395.857v-1.678a.427.427,0,0,0-.422-.425h-1.32v-3.887a.425.425,0,0,0-.417-.424h-2.1a.426.426,0,0,0-.416.413v3.9h-1.083a.429.429,0,0,0-.422.422v1.682a.429.429,0,0,0,.426.422h1.08v8.758a.426.426,0,0,0,.425.414h2.084a.426.426,0,0,0,.426-.424v-8.748h1.317A.427.427,0,0,0,318.586,395.857Z" transform="translate(-243.331 -385.954)" fill="#fff"/>
    <path id="패스_33" data-name="패스 33" d="M345.292,395.954v-1.679a.426.426,0,0,0-.421-.424h-1.321v-3.889a.427.427,0,0,0-.419-.424h-2.1a.425.425,0,0,0-.416.414v3.9h-1.083a.427.427,0,0,0-.422.421v1.684a.427.427,0,0,0,.425.421h1.081v8.758a.426.426,0,0,0,.425.414h2.084a.426.426,0,0,0,.426-.424v-8.748h1.317A.426.426,0,0,0,345.292,395.954Z" transform="translate(-237.048 -385.931)" fill="#fff"/>
    <path id="패스_34" data-name="패스 34" d="M297.154,405.1a6.233,6.233,0,1,1,6.233-6.233A6.24,6.24,0,0,1,297.154,405.1Zm0-9.583a3.35,3.35,0,1,0,3.35,3.35A3.353,3.353,0,0,0,297.154,395.512Z" transform="translate(-248.385 -385.204)" fill="#fff"/>
    <path id="패스_35" data-name="패스 35" d="M312.466,395.625a3.118,3.118,0,0,0-.692-1.2,5.979,5.979,0,0,0-.886-.813,4.927,4.927,0,0,0-.98-.562,4.285,4.285,0,0,0-.579-.2c-.177-.047-.356-.086-.531-.119s-.337-.055-.488-.072a4.277,4.277,0,0,0-.434-.025,5.772,5.772,0,0,0-2.138.375,4.736,4.736,0,0,0-1.672,1.123,5.322,5.322,0,0,0-1.014,1.609,4.975,4.975,0,0,0-.341,1.836v6.47a.43.43,0,0,0,.43.43h1.934a.431.431,0,0,0,.431-.43v-6.387a3.347,3.347,0,0,1,.224-.84,2.85,2.85,0,0,1,.456-.745,1.722,1.722,0,0,1,.631-.483,2.209,2.209,0,0,1,.883-.163,2.149,2.149,0,0,1,.927.18,1.427,1.427,0,0,1,.585.521,2.85,2.85,0,0,1,.377.782,2.911,2.911,0,0,1,.126.843v6.292a.431.431,0,0,0,.431.43h2.111a.43.43,0,0,0,.431-.43v-6.87A5.08,5.08,0,0,0,312.466,395.625Z" transform="translate(-245.611 -385.202)" fill="#fff"/>
    <path id="패스_36" data-name="패스 36" d="M339.709,395.625a3.12,3.12,0,0,0-.692-1.2,5.984,5.984,0,0,0-.886-.813,4.959,4.959,0,0,0-.978-.562,4.41,4.41,0,0,0-.579-.2c-.178-.047-.356-.086-.532-.119s-.336-.055-.488-.072a4.238,4.238,0,0,0-.434-.025,5.771,5.771,0,0,0-2.138.375,4.735,4.735,0,0,0-1.673,1.123,5.321,5.321,0,0,0-1.013,1.609,4.953,4.953,0,0,0-.342,1.836v6.47a.431.431,0,0,0,.431.43h1.933a.431.431,0,0,0,.431-.43v-6.387a3.355,3.355,0,0,1,.224-.84,2.828,2.828,0,0,1,.457-.745,1.71,1.71,0,0,1,.63-.483,2.213,2.213,0,0,1,.883-.163,2.15,2.15,0,0,1,.926.18,1.427,1.427,0,0,1,.585.521,2.853,2.853,0,0,1,.377.782,2.915,2.915,0,0,1,.126.843v6.292a.431.431,0,0,0,.431.43H339.5a.43.43,0,0,0,.43-.43v-6.87A5.08,5.08,0,0,0,339.709,395.625Z" transform="translate(-239.202 -385.202)" fill="#fff"/>
  </g>
</svg>
