<svg xmlns="http://www.w3.org/2000/svg" width="90" height="30" viewBox="0 0 90 30">
  <g id="logo_amway" transform="translate(-29 -65)">
    <g id="그룹_1975" data-name="그룹 1975" transform="translate(31.2 65.066)">
      <path id="패스_4936" data-name="패스 4936" d="M0,490.175s49.1-12.061,85.482-3.564l.113-.393S53.851,476.845.609,488.263Z" transform="translate(0 -461.146)" fill="#fafafa"/>
      <g id="그룹_1974" data-name="그룹 1974" transform="translate(2.609 -0.066)">
        <path id="패스_4937" data-name="패스 4937" d="M447.558,114.01v2a3.618,3.618,0,0,1,1.028-1.456,4.083,4.083,0,0,1,2.6-.885,4.409,4.409,0,0,1,1.465.257,3.486,3.486,0,0,1,2.133,2.284,4.46,4.46,0,0,1,4.06-2.512,4.289,4.289,0,0,1,3.032,1.17c1.285,1.256,1.336,2.626,1.336,6.052V128.8H459.43v-7c0-2.37-.051-2.855-.437-3.483a1.666,1.666,0,0,0-1.568-.829,1.962,1.962,0,0,0-1.619.857,7.122,7.122,0,0,0-.411,3.14v7.31h-3.778v-7.452c0-1.6,0-2.312-.385-2.969a1.8,1.8,0,0,0-1.542-.885,2,2,0,0,0-.977.258c-1.1.628-1.13,1.713-1.13,4.511V128.8h-3.777V114.01Z" transform="translate(-426.63 -108.597)" fill="#fafafa"/>
        <path id="패스_4938" data-name="패스 4938" d="M886.052,121.353h3.855l-3.855,14.79h-3.521L880.3,126.15l-2.21,9.993h-3.571l-3.854-14.79h3.854l2.03,9.251,2.081-9.251h3.34l2.057,9.251Z" transform="translate(-834.454 -115.94)" fill="#fafafa"/>
        <path id="패스_4939" data-name="패스 4939" d="M1291.217,120.625a5.509,5.509,0,0,1-.976,3.6,2.2,2.2,0,0,1-1.645.828,2.347,2.347,0,0,1-2.107-1.742,6.714,6.714,0,0,1-.411-2.541,5.7,5.7,0,0,1,.8-3.254,2.41,2.41,0,0,1,1.876-1.085,2.035,2.035,0,0,1,1.516.742A4.991,4.991,0,0,1,1291.217,120.625Zm.2,7.567h3.7V113.373h-3.623v1.913a3.559,3.559,0,0,0-3.289-2.256c-2.518,0-5.808,2.17-5.808,7.995,0,4.625,2.364,7.481,5.525,7.481a3.861,3.861,0,0,0,3.494-1.942Z" transform="translate(-1227.832 -107.988)" fill="#fafafa"/>
        <path id="패스_4940" data-name="패스 4940" d="M1576.138,121.353h3.84l-4.225,14.676a10.439,10.439,0,0,1-1.542,3.541c-.694.742-1.516,1.085-4.574,1.085-.437,0-.616-.028-1-.057v-3.284h1a2.57,2.57,0,0,0,1.593-.371,2.113,2.113,0,0,0,.565-1.485,4.931,4.931,0,0,0-.283-1.257l-4.112-12.848h4.112l2.415,9.964Z" transform="translate(-1500.134 -115.94)" fill="#fafafa"/>
        <path id="패스_4941" data-name="패스 4941" d="M67.256,4.37l2.027,7.784H65.334ZM64.86-.066l-6.345,20.2h4.66l1.185-4.293h5.95l1.211,4.293h4.686L69.6-.066Z" transform="translate(-58.515 0.066)" fill="#fafafa"/>
      </g>
    </g>
    <rect id="사각형_1784" data-name="사각형 1784" width="90" height="30" transform="translate(29 65)" fill="none" opacity="0.32"/>
  </g>
</svg>
