<svg id="레이어_2" data-name="레이어 2" xmlns="http://www.w3.org/2000/svg" xmlns:xlink="http://www.w3.org/1999/xlink" viewBox="0 0 127.74 145">
  <defs>
    <style>
      .cls-1 {
        fill: none;
      }

      .cls-2 {
        fill: #2cc5d1;
      }

      .cls-3 {
        clip-path: url(#clip-path);
      }

      .cls-4 {
        fill: #ffd2bd;
      }

      .cls-5 {
        fill: #dea49f;
      }

      .cls-6 {
        fill: #ffdbc7;
      }

      .cls-7 {
        fill: #f1f1f1;
      }

      .cls-8 {
        fill: #454a56;
      }

      .cls-9 {
        fill: #343942;
      }

      .cls-10 {
        fill: #de908b;
      }

      .cls-11 {
        fill: #595c72;
      }

      .cls-12 {
        fill: #753643;
      }

      .cls-13 {
        fill: #923643;
      }

      .cls-14 {
        clip-path: url(#clip-path-2);
      }

      .cls-15 {
        fill: #d4a77c;
      }

      .cls-16 {
        fill: #d9ac6a;
      }

      .cls-17 {
        fill: #fff;
      }
    </style>
    <clipPath id="clip-path" transform="translate(13.53)">
      <rect class="cls-1" x="0.34" width="100" height="100" rx="5"/>
    </clipPath>
    <clipPath id="clip-path-2" transform="translate(13.53)">
      <path class="cls-1" d="M58.48,132.75c-.2-2.26-4-32.86-5-40l.29-.11c1.06-.43.63-2.19.84-3.34.09-.51.14-2.73-.38-3.24-.77-.76-1.27-.84-3.4-.86-1.41,0-4-.24-4.42,1.7a7,7,0,0,0,.13,2.61c.12.65,0,2.16.4,2.53a2.07,2.07,0,0,0,.54.39c-1.15,8.41-2.73,39-2.59,40.36.28,2.6,4.42,9.59,7.32,12.26C54,143.13,58.66,134.74,58.48,132.75Z"/>
    </clipPath>
  </defs>
  <g id="남_on" data-name="남 on">
    <g id="그룹_2041" data-name="그룹 2041">
      <g id="box">
        <rect id="bg-2" class="cls-2" x="13.87" width="100" height="100" rx="5"/>
      </g>
      <g class="cls-3">
        <g id="마스크_그룹_26" data-name="마스크 그룹 26">
          <g id="그룹_2040" data-name="그룹 2040">
            <g id="그룹_2034" data-name="그룹 2034">
              <path id="패스_5114" data-name="패스 5114" class="cls-4" d="M85.28,104.7c1.47,9.54-20.46,16.37-28.92,20.37-7.49,3.55-15.3.77-21.37-4.24-4.68-3.86-24.14-4.16-20.18-9.28,4.68-6,11.83-15.65,15.61-20.44,2.34-2.94,5.85-16.78,5.74-18.67,2.3,2.4,8.66,4.42,11.67,5.84,3.65,1.73,12.2,1.16,17.23,0A25.41,25.41,0,0,0,69.94,89.5C77.74,98.92,84.67,100.72,85.28,104.7Z" transform="translate(13.53)"/>
              <path id="패스_5115" data-name="패스 5115" class="cls-5" d="M62.56,51.67c.88,4.11.47,7.32.62,11.23a80.43,80.43,0,0,0,1.88,15.38c-6.6,2.13-13.87,2.59-17.94,1.13-3.14-1.12-8.67-4-11-7-.26-4.57-.31-13.41-1.41-17.71C37,51.51,43.82,50.43,48,49.23A16.76,16.76,0,0,1,62.56,51.67Z" transform="translate(13.53)"/>
              <path id="패스_5116" data-name="패스 5116" class="cls-6" d="M61.91,50.08a4.9,4.9,0,0,1,.65,1.59A16.75,16.75,0,0,0,48,49.25c-4.13,1.2-8.23,6.34-10.55,9.53-.48-1.87-.94-6.57-1.28-8.36,1.94-2.61,9-3.8,12.37-3.81C52.25,46.6,59.78,46.9,61.91,50.08Z" transform="translate(13.53)"/>
            </g>
            <path id="패스_5117" data-name="패스 5117" class="cls-4" d="M73.48,46c-1.25-1.67-3.33-2.68-5-.8,4.51-6.69,1.58-12.15-2-17.08C62,21.75,50.76,22.27,43.6,23.39c-5.6.87-11.28,3.36-13.49,8.32-1.9,4.27-3.69,9.34.46,14.38-2.91-2.23-6.49.53-6.19,4.76.25,3.5,4.94,10.17,7.74,6.52.48,5.16,2.1,8.78,4.66,10.88C43,73.41,46,75.08,50.87,75.08c4.36,0,9.29-3.43,14-8.17,2-2,2.41-6.32,2.7-9.5,3.51,1.94,5.72-1.33,6.59-4C74.88,51.17,74.85,47.79,73.48,46Z" transform="translate(13.53)"/>
            <path id="패스_5118" data-name="패스 5118" class="cls-5" d="M26.41,51.5c.22-.62.2-2.38,1-2.53s1.44,1,1.75,1.52a7.3,7.3,0,0,1,.88,2c.1.37.2,1-.33.87-.35-.09-.55-.43-1-.5a.66.66,0,0,0-.78.45c-.54,1.68,2.06,2.37,3,1.28,1.11-1.24,0-3.15-.69-4.3S28.63,47.83,27.31,48c-1.62.16-1.89,2.33-1.51,3.57a.28.28,0,0,0,.34.18.29.29,0,0,0,.18-.18Z" transform="translate(13.53)"/>
            <path id="패스_5119" data-name="패스 5119" class="cls-5" d="M73.05,49.79c.35-1.2-.5-2.83-1.9-2.6a2.49,2.49,0,0,0-1.57,1.23,10.44,10.44,0,0,0-1.37,2.73c-.35,1.22.31,3.59,2,3.17a2.42,2.42,0,0,0,1.47-3h0a.55.55,0,0,0-.76-.18h0a.57.57,0,0,0-.27.46c0,.43-.15,1.28-.59,1.48s-.67-.5-.74-.9a3,3,0,0,1,.4-1.79,6,6,0,0,1,1.18-2c1.16-1,1.53.77,1.71,1.53a.24.24,0,0,0,.46,0Z" transform="translate(13.53)"/>
            <path id="패스_5120" data-name="패스 5120" class="cls-7" d="M32,85.91a48.86,48.86,0,0,0-1.4,10.56c-.17,3.9.93,8.57,2.69,13.45H66.6c1.65-5.52,2.69-10.89,2.48-15.35-.28-6.14-.85-6.23-1.6-10.56l-17.32-.22-17.55.56s-.19.6-.58,1.56Z" transform="translate(13.53)"/>
            <path id="패스_5121" data-name="패스 5121" class="cls-8" d="M72.23,44.9c1.13-4.74,1.89-7.41,2-10.95.15-4.41-.32-10.09-3-13.7-2.51-3.43-4.78-5.83-10.33-5.63,0,0-4.39-7.2-19.79-3.55C34,12.77,29,18.43,25.62,24.93c-2.62,5-1.41,15.4,1.49,20.43,0,0,3.09-1.17,5.15,4.23,0,0-5.84-21.62,10.54-25.94l.78.65.88-1a26.1,26.1,0,0,1,5-.12s21.83-2.1,18.06,24.32c0,0,.77-3.79,3.37-3.35Z" transform="translate(13.53)"/>
            <path id="패스_5122" data-name="패스 5122" class="cls-8" d="M28.94,43.55c5.72,1,7.47-5.95,8.32-10.06.94-4.49,1.94-6.68,5.86-9.13-.59-.92-1-2.87-2-3.19-3.13-1-5.72.4-7.76,2.8-3.53,4.19-4.88,10.48-4.05,15.83C29.48,41.09,29.94,42.74,28.94,43.55Z" transform="translate(13.53)"/>
            <path id="패스_5123" data-name="패스 5123" class="cls-8" d="M45.16,22c-.45.76-.88,1.63-1.26,2.41,3.63-1.41,8.78.51,10.66,4,1.49,2.76.6,5.15,1.35,8.09a5.07,5.07,0,0,0,4.28,3.55c-1.28-1.69-2.09-3-2.11-5a15.13,15.13,0,0,0-.66-5,6.93,6.93,0,0,1,1.86,3.3c.85,2.74,1,4.7,3.18,6.9A8.81,8.81,0,0,0,70,42.48c1.08-.18.89,0,.81-1s-.6-2.22-.79-3.27c-.25-1.4-.48-2.8-.7-4.2-.5-3.16-1.09-6.09-2.88-8.82-2-2.87-4.93-7.19-8.44-8.31a10.68,10.68,0,0,0-10.78,2.58A12.88,12.88,0,0,0,45.16,22Z" transform="translate(13.53)"/>
            <path id="패스_5124" data-name="패스 5124" class="cls-9" d="M57.61,47.67a2.45,2.45,0,0,0,.08-.29,2.67,2.67,0,0,0-.3-1.47.91.91,0,0,0-1.25-.31h0a.81.81,0,0,0-.31.3,2.67,2.67,0,0,0-.3,1.24,2,2,0,0,0,.15.9.88.88,0,0,0,.86.79c.2,0,.28-.15.43-.23l.11-.06a1.3,1.3,0,0,0,.46-.6c0-.05.07-.06.08-.11S57.6,47.73,57.61,47.67Z" transform="translate(13.53)"/>
            <path id="패스_5125" data-name="패스 5125" class="cls-9" d="M44.35,47.3c0-.14-.05-.28-.08-.42v-.13a1.43,1.43,0,0,0-.46-.86.91.91,0,0,0-1.51.4,2.36,2.36,0,0,0,.38,2.43.93.93,0,0,0,.92.14h0c.17-.07.36-.11.45-.3s0-.11,0-.16A1.78,1.78,0,0,0,44.35,47.3Zm-1.84-.16Z" transform="translate(13.53)"/>
            <path id="패스_5126" data-name="패스 5126" class="cls-8" d="M38.12,40.67c2.2-.53,4.66-.85,6.68.43,1,.63,1.93-1,.93-1.58-2.42-1.48-5.57-1.07-8,.27a.48.48,0,0,0,.37.88Z" transform="translate(13.53)"/>
            <path id="패스_5127" data-name="패스 5127" class="cls-8" d="M61.43,39.79c-2.41-1.34-5.56-1.75-8-.27-1,.62-.07,2.21.93,1.58,2-1.27,4.48-1,6.68-.43a.48.48,0,0,0,.37-.88Z" transform="translate(13.53)"/>
            <path id="패스_5128" data-name="패스 5128" class="cls-5" d="M51.45,42.94c-2.94,5.15,1.59,10-.28,15.12-.24.67.7.92,1.06.44a5.42,5.42,0,0,0,.71-5.5c-1.13-3.36-2-6.27-.89-9.82a.34.34,0,0,0-.23-.4.32.32,0,0,0-.37.15Z" transform="translate(13.53)"/>
            <path id="패스_5129" data-name="패스 5129" class="cls-10" d="M45.55,61.53C46,62.76,48.4,63.76,49.61,64c1.88.35,4.73-.57,5.78-2.24.3-.47-.27-.88-.69-.69-1.6.69-3.37,2-5.2,1.63A15.89,15.89,0,0,1,46.26,61c-.34-.16-.85.12-.7.54Z" transform="translate(13.53)"/>
            <g id="그룹_2035" data-name="그룹 2035">
              <path id="패스_5130" data-name="패스 5130" class="cls-11" d="M66.6,109.92h47.61c-.34-.8-.64-1.62-1-2.4-1.63-3.46-3.25-7.27-6.58-9.44-4.3-2.8-10.25-2.49-15.11-3.52A57.09,57.09,0,0,1,68.32,84.4c-.62-.48-.84-.4-.84-.4.75,4.33,1.32,4.42,1.6,10.56C69.29,99,68.25,104.4,66.6,109.92Z" transform="translate(13.53)"/>
            </g>
            <g id="그룹_2036" data-name="그룹 2036">
              <path id="패스_5131" data-name="패스 5131" class="cls-11" d="M34.08,109.92H-13.53c.34-.8.64-1.62,1-2.4,1.63-3.46,3.25-7.27,6.58-9.44,4.29-2.8,10.25-2.49,15.11-3.52A57.65,57.65,0,0,0,32.34,84.4c.63-.48.84-.4.84-.4-.75,4.33-1.32,4.42-1.6,10.56C31.39,99,32.42,104.4,34.08,109.92Z" transform="translate(13.53)"/>
            </g>
            <g id="그룹_2039" data-name="그룹 2039">
              <path id="패스_5132" data-name="패스 5132" class="cls-12" d="M47.65,91.09c-1.15,5.8-2.94,40.18-2.78,41.66.27,2.6,4.42,9.59,7.31,12.25,1.84-1.87,6.48-10.26,6.3-12.25-.22-2.42-4.57-37.43-5.21-41.21C53.1,90.57,48.39,90.43,47.65,91.09Z" transform="translate(13.53)"/>
              <path id="패스_5133" data-name="패스 5133" class="cls-13" d="M46.37,86.86a7,7,0,0,0,.14,2.61c.12.64,0,2.15.4,2.53a4.78,4.78,0,0,0,1.7.89A11.68,11.68,0,0,0,52,93a4.71,4.71,0,0,0,1.77-.4c1.06-.43.63-2.19.84-3.33.09-.52.14-2.74-.38-3.25-.76-.75-1.27-.83-3.4-.85C49.38,85.15,46.82,84.92,46.37,86.86Z" transform="translate(13.53)"/>
              <g id="그룹_2038" data-name="그룹 2038">
                <g class="cls-14">
                  <g id="그룹_2037" data-name="그룹 2037">
                    <path id="패스_5134" data-name="패스 5134" class="cls-15" d="M60.7,143c-2.91-.05-5.94-1.82-8.37-3.25l-.09-.05c-4.52-2.63-8.35-6.7-11.81-10.7l.64-.55c3.42,4,7.19,8,11.59,10.54l.1.06c2.35,1.38,5.27,3.09,8,3.13Z" transform="translate(13.53)"/>
                    <path id="패스_5135" data-name="패스 5135" class="cls-15" d="M62.93,138a10.63,10.63,0,0,0-2.77-1.08c-.53-.15-1-.3-1.47-.47a27,27,0,0,1-6.32-3.35,50.13,50.13,0,0,1-7-5.93c-.21-.22-.46-.52-.74-.84a8.92,8.92,0,0,0-1.82-1.81l.42-.73a8.63,8.63,0,0,1,2,2c.26.3.49.58.7.79a49.19,49.19,0,0,0,6.89,5.83,26.65,26.65,0,0,0,6.18,3.2c.43.16.91.3,1.4.45a11.57,11.57,0,0,1,3,1.18Z" transform="translate(13.53)"/>
                    <path id="패스_5136" data-name="패스 5136" class="cls-15" d="M62.76,132c-.71-.32-1.47-.58-2.2-.83q-.75-.25-1.5-.54a31.69,31.69,0,0,1-7.41-4.24,51.91,51.91,0,0,1-7.19-6.63l-.26-.28a5.14,5.14,0,0,1-1-1.23l.75-.39a4.38,4.38,0,0,0,.82,1l.28.29a50.2,50.2,0,0,0,7.06,6.53,30.23,30.23,0,0,0,7.22,4.13c.48.19,1,.36,1.47.53.75.25,1.52.52,2.27.85Z" transform="translate(13.53)"/>
                    <path id="패스_5137" data-name="패스 5137" class="cls-15" d="M61.66,123.61a32.74,32.74,0,0,1-12.18-5.44,39.48,39.48,0,0,1-5.57-5.32l-.45-.49a3.82,3.82,0,0,1-.85-1.14l.78-.34a3.14,3.14,0,0,0,.68.9l.47.5A38.46,38.46,0,0,0,50,117.49a31.85,31.85,0,0,0,11.87,5.29Z" transform="translate(13.53)"/>
                    <path id="패스_5138" data-name="패스 5138" class="cls-15" d="M59.92,117c-5.4-1-11-4.8-16.64-11.24l.64-.56c5.51,6.3,11,10,16.16,11Z" transform="translate(13.53)"/>
                    <path id="패스_5139" data-name="패스 5139" class="cls-15" d="M59.59,111.46c-5.38-2.31-12.46-6.4-15.58-12.71l.76-.37c3.16,6.39,10.85,10.45,15.16,12.3Z" transform="translate(13.53)"/>
                    <path id="패스_5140" data-name="패스 5140" class="cls-15" d="M60.25,105.39c-6.92-1.53-11.7-7.4-15.65-12.76l.69-.5c3.85,5.25,8.51,11,15.15,12.44Z" transform="translate(13.53)"/>
                    <path id="패스_5141" data-name="패스 5141" class="cls-15" d="M60,98.93a25.9,25.9,0,0,1-4-1.47A30.15,30.15,0,0,1,44.26,86.71l.73-.44a29.18,29.18,0,0,0,11.4,10.42,24.35,24.35,0,0,0,3.88,1.42Z" transform="translate(13.53)"/>
                    <path id="패스_5142" data-name="패스 5142" class="cls-15" d="M57.67,94a22.83,22.83,0,0,1-8.9-6.64l-.54-.61a14.57,14.57,0,0,1-2.89-4.07l.8-.29a14.2,14.2,0,0,0,2.72,3.8l.55.62A21.66,21.66,0,0,0,58,93.21Z" transform="translate(13.53)"/>
                    <path id="패스_5143" data-name="패스 5143" class="cls-16" d="M57.75,90.83a19,19,0,0,1-5.25-4c-.38-.37-.75-.73-1.12-1.07l-.78-.71a11.23,11.23,0,0,1-3-3.47l.78-.35a10.18,10.18,0,0,0,2.77,3.18l.8.73,1.13,1.08a18.52,18.52,0,0,0,5,3.88Z" transform="translate(13.53)"/>
                  </g>
                </g>
              </g>
            </g>
            <path id="패스_5145" data-name="패스 5145" class="cls-17" d="M35.07,77.12,50.14,83.2l14.92-6.41,2.77,6.91L55.89,94.58l-5.73-9.86-4.33,9.83L31.67,85.68Z" transform="translate(13.53)"/>
          </g>
        </g>
      </g>
    </g>
    <g id="ic_check" data-name="ic check">
      <path id="ic_check-2" data-name="ic check-2" class="cls-17" d="M95.34,18h-10a3,3,0,0,1-3-3V5a3,3,0,0,1,3-3h10a3,3,0,0,1,3,3V15A3,3,0,0,1,95.34,18ZM86.21,9.43a.8.8,0,0,0-.8.8h0a.79.79,0,0,0,.23.56l3,3a.79.79,0,0,0,.56.23h0a.83.83,0,0,0,.57-.23l6.11-6.12a.8.8,0,0,0-.06-1.13.79.79,0,0,0-1.07,0L89.16,12,86.78,9.62A.85.85,0,0,0,86.21,9.43Z" transform="translate(13.53)"/>
    </g>
  </g>
</svg>
