<svg id="레이어_2" data-name="레이어 2" xmlns="http://www.w3.org/2000/svg" xmlns:xlink="http://www.w3.org/1999/xlink" viewBox="0 0 100.31 225.15"><defs><style>.cls-1{fill:none;}.cls-2{fill:#e8e8e8;}.cls-3{clip-path:url(#clip-path);}.cls-4{opacity:0.7;}.cls-5{fill:#43372d;}.cls-6{fill:#ffdbc7;}.cls-7{fill:#dea49f;}.cls-8{fill:#e2e0e3;}.cls-9{fill:#ffc7ae;}.cls-10{fill:#343942;}.cls-11{fill:#515c72;}.cls-12,.cls-19{fill:#fff;}.cls-13{fill:#4368ae;}.cls-14{fill:#363133;}.cls-15{clip-path:url(#clip-path-2);}.cls-16{fill:#acc8ea;}.cls-17{fill:#272525;}.cls-18{fill:#de908b;}.cls-19{opacity:0.5;isolation:isolate;}</style><clipPath id="clip-path" transform="translate(-679.2 -42.66)"><rect class="cls-1" x="679.2" y="42.66" width="100" height="100" rx="5"/></clipPath><clipPath id="clip-path-2" transform="translate(-679.2 -42.66)"><rect class="cls-1" x="732.01" y="169.3" width="9.78" height="10.67" transform="translate(-20.34 184.77) rotate(-14.1)"/></clipPath></defs><g id="여_on" data-name="여 on"><g id="box"><rect id="bg-2" class="cls-2" width="100" height="100" rx="5"/></g><g class="cls-3"><g id="마스크_그룹_25" data-name="마스크 그룹 25"><g id="그룹_2033" data-name="그룹 2033" class="cls-4"><path id="패스_5069" data-name="패스 5069" class="cls-5" d="M754.62,82.55c-2-17.24-9.06-24.34-19.71-27.83a17.65,17.65,0,0,0-15.86,1.94,15.55,15.55,0,0,0-5.2,5.16c-5.19.9-11,6.49-13.57,13.44-2.79,7.47-3.12,19.45-3.56,28-.6,11.85,1.6,20.5,3.71,27.88a113.48,113.48,0,0,0,6.28,17.11s14.77-3.7,22.35-1.83c5.22,1.29,9.67,4.29,14.58,7.3,2.71,1.67,5.7,2.24,8.35,3.93.7-3,.9-6.62,1.4-9.8a162.44,162.44,0,0,0,2.12-19.06C756,116.5,756,94.73,754.62,82.55Z" transform="translate(-679.2 -42.66)"/><g id="_1" data-name=" 1"><g id="그룹_2025" data-name="그룹 2025"><path id="패스_5070" data-name="패스 5070" class="cls-6" d="M761.29,148.76c1.64,10.62-15.45,25.86-24.86,30.32-8.34,3.94-17,.85-23.8-4.72-5.21-4.3-13.71-13.55-14.51-20.71-.9-8.1,8.76-10.74,13-16.07,2.6-3.28,6.22-7,6.88-11.06a30.08,30.08,0,0,0,.28-6.36,30.63,30.63,0,0,0,8.68,6.83c4.06,1.93,11.34,3.5,16.94,2.2a52.52,52.52,0,0,0,3.54,5.54C750.94,139.08,760.61,144.33,761.29,148.76Z" transform="translate(-679.2 -42.66)"/><path id="패스_5071" data-name="패스 5071" class="cls-7" d="M743.32,100.55c1,4.58-2.85,11.73-2.68,16.09.24,6.22,1,8.51,3.23,12.56-5.6,1.29-13.09.37-17.15-1.55-3.35-1.59-5.91-4.13-8.47-7.49-.29-5.09-1.66-10.09-2.88-14.87,2.57-3.56,7.14-6.09,11.74-7.42A18.6,18.6,0,0,1,743.32,100.55Z" transform="translate(-679.2 -42.66)"/><path id="패스_5072" data-name="패스 5072" class="cls-6" d="M742.61,98.79a5.18,5.18,0,0,1,.71,1.76,18.6,18.6,0,0,0-16.21-2.68c-4.6,1.33-9.17,3.86-11.75,7.42-.53-2.08-1-4.13-1.42-6.12,2.16-2.91,10-4.24,13.77-4.25C731.85,94.91,740.23,95.24,742.61,98.79Z" transform="translate(-679.2 -42.66)"/></g><path id="패스_5073" data-name="패스 5073" class="cls-6" d="M755.75,86.66c-1.46-1.89-3.88-3-5.72-.82.68-9.3-.82-15.73-5-21.32-5.39-7.2-15.38-8.52-23.6-7.09-6.42,1.11-11.1,6.35-13.54,12.1-2.1,5-1.47,8.73-1.65,13.24,0,1.59.06,3.23.18,4.88-3.39-2.5-7.45.75-7,5.6.35,4,5.87,10,9,5.8,2.58,8.5,7.81,15.72,17.56,17.62,12.66,2.45,20.3-7.72,23.23-18.26,4.06,2.16,6.55-1.65,7.49-4.79C757.47,91.09,757.37,88.74,755.75,86.66Z" transform="translate(-679.2 -42.66)"/><path id="패스_5074" data-name="패스 5074" class="cls-7" d="M701.77,93.45c.28-.76.16-2.38,1-2.79s1.77,1,2.15,1.58A7.18,7.18,0,0,1,706,94.63c.1.56.1,1-.47.68a2.53,2.53,0,0,0-1.17-.46.83.83,0,0,0-.77.58c-.8,2,2.48,2.8,3.61,1.5,1.31-1.5-.07-3.74-.93-5.1-.73-1.14-2-2.87-3.59-2.54-1.74.38-2,2.76-1.51,4.15a.35.35,0,0,0,.43.23.34.34,0,0,0,.22-.23Z" transform="translate(-679.2 -42.66)"/><path id="패스_5075" data-name="패스 5075" class="cls-7" d="M755.36,90.57c.42-1.41-.64-3.28-2.25-3A2.83,2.83,0,0,0,751.29,89a12.57,12.57,0,0,0-1.54,3.17c-.4,1.45.43,4.2,2.4,3.69a2.8,2.8,0,0,0,1.69-3.57.19.19,0,0,1,0-.07.69.69,0,0,0-1-.22.65.65,0,0,0-.32.56c0,.44-.15,1.5-.64,1.68s-.69-.52-.78-1a3.26,3.26,0,0,1,.41-2.05,7.18,7.18,0,0,1,1.3-2.36c1.27-1.17,1.71.85,1.95,1.69a.3.3,0,0,0,.57,0Z" transform="translate(-679.2 -42.66)"/><path id="패스_5076" data-name="패스 5076" class="cls-5" d="M709.42,55.05c-6.07,4.2-12,10.83-11.36,18.69.39,4.67.87,8.21,3.38,12.1a13.21,13.21,0,0,0,9.89,5.72c-3.05-4.58-.79-10.65,1.65-14.25,3.81-5.62,6.08-6.79,11.29-10.92-.46,3-.27,4.42-2,7.1a25.92,25.92,0,0,1-8.38,7.24c4.89.34,6.84-.08,10.8-3.29,7.37-6,5.72-11.7,5.72-11.7,1.29.68,2.05,1,2.36,1.2a40.5,40.5,0,0,1,10.82,8.26c3.25,3.6,5,7.82,4.37,12.63,6.7-2.79,9.22-10.72,8.2-17.37-1.21-7.86-5.4-15.61-12.27-19.85C734.63,44.9,717.18,45.65,709.42,55.05Z" transform="translate(-679.2 -42.66)"/><path id="패스_5077" data-name="패스 5077" class="cls-8" d="M772.85,267.81c2.17-29.09,7.31-55.46,6.6-70.46-.94-19.54-4.55-51-30-64.17,0,0-10.23-.86-16,.1l-2,6.21-3.09-5.7-17.5,2.75C706,140,689.08,150.06,683.32,165c-7.36,19,16,82.47,16.8,102.86Z" transform="translate(-679.2 -42.66)"/><g id="그룹_2026" data-name="그룹 2026"><path id="패스_5078" data-name="패스 5078" class="cls-7" d="M746.78,261.54c6.36.61,12.47-2.92,16.86-7.29,2.87-2.86-4.39-.55-5.28-.32-2.86.73-5.86,1.52-8.67,2.41-1,.31-3.28,1-3.8,1.9C745.48,259,746.27,261.07,746.78,261.54Z" transform="translate(-679.2 -42.66)"/><path id="패스_5079" data-name="패스 5079" class="cls-9" d="M745.85,255.49c2.26-.46,4.45-2.21,6.39-3.36,1.6-.95,3.32-1.77,4.87-2.8,1.73-1.14,2.83-3.25,4.67-4.21,2.9-1.52-.83,4.69-1.24,5.35a21.11,21.11,0,0,1-4.65,5.27c-1.34,1.12-4.37,3.44-6.26,3.25-1.44-.14-1.81-1.72-2.7-2.59C746.56,256.05,746.13,255.9,745.85,255.49Z" transform="translate(-679.2 -42.66)"/><path id="패스_5080" data-name="패스 5080" class="cls-6" d="M728.83,245.93c1.5.26,4.66,3.4,6.14,3s2-1.77,3.11-2.8a17.56,17.56,0,0,1,5.61-3.15c1-.43,3.57-1.37,4.27-1.13,3.29,1.13-4.41,5.34-4.17,6.9a2.41,2.41,0,0,0,2.63,1.21c2-.45,3.43-.94,5.34-1.53a8.94,8.94,0,0,0,3.78-2.63c.89-1,1.63-2.53,2.78-3.2.45-.25.88-.27.95.33a7.92,7.92,0,0,1-1,5.12,21.38,21.38,0,0,1-3.52,3.9,16.58,16.58,0,0,1-4.36,2.9,3.88,3.88,0,0,1,1.89,3.42,2.08,2.08,0,0,1,.4,2.74s-11,3.7-33.94-4.22" transform="translate(-679.2 -42.66)"/></g><path id="패스_5081" data-name="패스 5081" class="cls-10" d="M737.62,86.3a1.15,1.15,0,0,0-1.58-.37,1.09,1.09,0,0,0-.37.37,3.11,3.11,0,0,0-.38,1.54,2.66,2.66,0,0,0,.13,1.12,1.14,1.14,0,0,0,1.11,1c1,0,1.42-.93,1.46-1.82A3.53,3.53,0,0,0,737.62,86.3Z" transform="translate(-679.2 -42.66)"/><path id="패스_5082" data-name="패스 5082" class="cls-10" d="M723.45,88a3.47,3.47,0,0,0-.08-.55v-.06a1.31,1.31,0,0,0,0-.15,1.83,1.83,0,0,0-.56-1,1.14,1.14,0,0,0-1.62.06,1.1,1.1,0,0,0-.26.44,3,3,0,0,0,.47,3,1.14,1.14,0,0,0,1.6,0l.16-.21a0,0,0,0,1,0,0A2.23,2.23,0,0,0,723.45,88Z" transform="translate(-679.2 -42.66)"/><path id="패스_5083" data-name="패스 5083" class="cls-7" d="M731.37,86.41a6.9,6.9,0,0,0,.76,4.93c.3.48,1.61,1.54,1.54,2.1s-1.3,1.45-1.62,2.17c-.16.35.21.91.61.61.92-.68,2.66-2,2.23-3.35-.29-.9-1.47-1.52-1.93-2.35-.71-1.28-.68-2.72-1-4.11a.32.32,0,0,0-.38-.22.31.31,0,0,0-.22.22Z" transform="translate(-679.2 -42.66)"/><path id="패스_5084" data-name="패스 5084" class="cls-5" d="M719,79.26a20.06,20.06,0,0,1,2.77.7,9.11,9.11,0,0,0,2.57.67c.5,0,.88-.73.44-1.07a10.6,10.6,0,0,0-5.59-1.7c-.8,0-1,1.27-.19,1.4Z" transform="translate(-679.2 -42.66)"/><path id="패스_5085" data-name="패스 5085" class="cls-5" d="M734.12,80.6c1.53-1,3.23-1.6,4.76-.22a.53.53,0,0,0,.75,0,.51.51,0,0,0,.08-.61c-1.15-2.52-4.83-2.16-6.42-.22-.46.56.12,1.53.83,1.08Z" transform="translate(-679.2 -42.66)"/><circle id="타원_20" data-name="타원 20" class="cls-11" cx="52.28" cy="105.33" r="1.43"/><path id="패스_5086" data-name="패스 5086" class="cls-11" d="M733.43,155.53A1.43,1.43,0,1,1,732,154.1h0A1.43,1.43,0,0,1,733.43,155.53Z" transform="translate(-679.2 -42.66)"/><path id="패스_5087" data-name="패스 5087" class="cls-11" d="M733.9,163.49a1.43,1.43,0,1,1-1.43-1.43h0A1.43,1.43,0,0,1,733.9,163.49Z" transform="translate(-679.2 -42.66)"/><g id="그룹_2032" data-name="그룹 2032"><g id="그룹_2031" data-name="그룹 2031"><rect id="사각형_1724" data-name="사각형 1724" class="cls-12" x="730.25" y="167.56" width="14.8" height="20.11" rx="1.09" transform="translate(-700.25 142.38) rotate(-14.1)"/><rect id="사각형_1725" data-name="사각형 1725" class="cls-13" x="732.77" y="180.88" width="11.53" height="0.52" transform="translate(-701.08 142.97) rotate(-14.12)"/><rect id="사각형_1726" data-name="사각형 1726" class="cls-14" x="734.78" y="182.13" width="8.66" height="2.55" transform="translate(-701.62 142.91) rotate(-14.1)"/><g id="그룹_2030" data-name="그룹 2030"><g class="cls-15"><g id="그룹_2029" data-name="그룹 2029"><rect id="사각형_1727" data-name="사각형 1727" class="cls-16" x="732.01" y="169.3" width="9.78" height="10.67" transform="translate(-699.54 142.11) rotate(-14.1)"/><g id="그룹_2028" data-name="그룹 2028"><path id="패스_5088" data-name="패스 5088" class="cls-17" d="M735.73,170.8a1,1,0,0,0-1.06-.45,2.39,2.39,0,0,0-1.55,1.19,3.56,3.56,0,0,0,.39,3.76c.38.6,1,1.2.84,2-.08.35-.41.49-.72.58a1.9,1.9,0,0,0,1.91-.22c.94-.76.9-2.28.85-3.45a15.3,15.3,0,0,0-.62-2.2C735.71,171.61,735.87,171.2,735.73,170.8Z" transform="translate(-679.2 -42.66)"/><g id="그룹_2027" data-name="그룹 2027"><path id="패스_5089" data-name="패스 5089" class="cls-6" d="M741.44,179c.4,1-.84,2.79-1.62,3.43a2.14,2.14,0,0,1-2.34.12,4.06,4.06,0,0,1-1.85-1.6c-.27-.74.57-1.22.84-1.81a2.73,2.73,0,0,0,.38-1.2,2.9,2.9,0,0,0-.12-.6,3,3,0,0,0,1,.43,2.87,2.87,0,0,0,1.64-.19,4.79,4.79,0,0,0,.47.43C740.24,178.37,741.27,178.63,741.44,179Z" transform="translate(-679.2 -42.66)"/><path id="패스_5090" data-name="패스 5090" class="cls-7" d="M738.62,174.94c.2.4,0,1.16.13,1.57a2.18,2.18,0,0,0,.6,1.1,3,3,0,0,1-1.65.26,2.37,2.37,0,0,1-1-.5,7.31,7.31,0,0,0-.62-1.33,2.18,2.18,0,0,1,.93-1A1.76,1.76,0,0,1,738.62,174.94Z" transform="translate(-679.2 -42.66)"/><path id="패스_5091" data-name="패스 5091" class="cls-6" d="M738.51,174.79a.42.42,0,0,1,.11.15,1.76,1.76,0,0,0-1.58.13,2.08,2.08,0,0,0-.93,1c-.1-.18-.2-.36-.28-.54.14-.32.84-.63,1.19-.72S738.2,174.51,738.51,174.79Z" transform="translate(-679.2 -42.66)"/></g><path id="패스_5092" data-name="패스 5092" class="cls-6" d="M739.45,173.34c-.18-.14-.43-.19-.55.06a2.86,2.86,0,0,0-1-1.88,2.34,2.34,0,0,0-2.38-.11,1.84,1.84,0,0,0-1,1.45,3.07,3.07,0,0,0,.15,1.28c0,.15.08.3.13.46-.37-.16-.68.24-.52.69s.78.8,1,.33a2.21,2.21,0,0,0,2.06,1.23c1.24-.06,1.72-1.2,1.75-2.25.43.1.57-.31.59-.63A.7.7,0,0,0,739.45,173.34Z" transform="translate(-679.2 -42.66)"/><path id="패스_5093" data-name="패스 5093" class="cls-7" d="M734.56,175.25c0-.08,0-.23,0-.29s.19.06.24.1a.7.7,0,0,1,.15.2c0,.05,0,.09,0,.08a.25.25,0,0,0-.12,0,.08.08,0,0,0-.06.08c0,.2.3.2.37,0s-.1-.35-.21-.45-.25-.23-.4-.16-.12.31,0,.43a0,0,0,0,0,0,0,0,0,0,0,0,0,0Z" transform="translate(-679.2 -42.66)"/><path id="패스_5094" data-name="패스 5094" class="cls-7" d="M739.51,173.72c0-.14-.14-.29-.28-.23a.28.28,0,0,0-.14.18,1.3,1.3,0,0,0-.07.33c0,.15.14.39.32.29a.27.27,0,0,0,.07-.37h0a.09.09,0,0,0-.1,0,.14.14,0,0,0,0,.06s0,.15,0,.18-.11-.22-.1-.28a.71.71,0,0,1,.06-.25c.1-.14.19,0,.23.11s0,0,0,0,0,0,0,0Z" transform="translate(-679.2 -42.66)"/><path id="패스_5095" data-name="패스 5095" class="cls-14" d="M734.37,171.47a2.14,2.14,0,0,0-.62,2,2.18,2.18,0,0,0,.6,1,1.25,1.25,0,0,0,1.06.3,1.25,1.25,0,0,1-.18-1.37,3.83,3.83,0,0,1,.8-1.29,1.42,1.42,0,0,1,0,.71,2.47,2.47,0,0,1-.62.88,1.22,1.22,0,0,0,.93-.56,1.18,1.18,0,0,0,.27-1.24l.24.06a4.07,4.07,0,0,1,1.21.52,1.5,1.5,0,0,1,.71,1.08,1.53,1.53,0,0,0,.36-1.82,2.76,2.76,0,0,0-1.62-1.57A2.82,2.82,0,0,0,734.37,171.47Z" transform="translate(-679.2 -42.66)"/><path id="패스_5096" data-name="패스 5096" class="cls-8" d="M745.3,189.9c-.48-2.77-.61-5.37-1-6.75-.55-1.81-1.63-4.68-4.32-5.31a8.45,8.45,0,0,0-1.5.38l0,.67-.43-.5-1.58.67a6.68,6.68,0,0,0-1.91,3.31c-.25,1.95,3.43,7.35,4,9.24Z" transform="translate(-679.2 -42.66)"/><path id="패스_5097" data-name="패스 5097" class="cls-12" d="M736.65,178.21l1.34,0,.42.56,0-.67.93-.74.64.39-.71,1.53-.68-.9-.14.46-.42-.32-.1,1.07-1.59-.61Z" transform="translate(-679.2 -42.66)"/><path id="패스_5098" data-name="패스 5098" class="cls-12" d="M736.52,186.67c-.69-.78-.52-4-.76-5.18-.06-.27-.31-1.28-.31-1.28a8.71,8.71,0,0,0-2.31,3.78,6.26,6.26,0,0,0,0,4.39c1.7,3.33,7.44,2.29,7.44,2.29l.67-2.07S737.26,187.5,736.52,186.67Z" transform="translate(-679.2 -42.66)"/><path id="패스_5099" data-name="패스 5099" class="cls-12" d="M743.38,184.6c.25-1-1.43-3.8-1.77-4.93-.08-.26-.33-1.27-.33-1.27a8.77,8.77,0,0,1,3.82,2.24,6.23,6.23,0,0,1,2,3.88c.07,3.74-5.48,5.53-5.48,5.53l-1.56-1.51S743.12,185.68,743.38,184.6Z" transform="translate(-679.2 -42.66)"/><path id="패스_5100" data-name="패스 5100" class="cls-10" d="M737.82,174s0,0,0,0v0a.38.38,0,0,0-.08-.17.11.11,0,0,0-.16,0l0,0a.38.38,0,0,0,0,.15.31.31,0,0,0,.05.1.11.11,0,0,0,.12.07s0,0,0,0h0A.09.09,0,0,0,737.82,174Z" transform="translate(-679.2 -42.66)"/><path id="패스_5101" data-name="패스 5101" class="cls-10" d="M736.46,174.36a.15.15,0,0,0,0-.13l0,0h0a.24.24,0,0,0-.08-.09.11.11,0,0,0-.15,0l0,0a.31.31,0,0,0,.12.28.14.14,0,0,0,.11,0h0s0,0,0-.05S736.46,174.37,736.46,174.36Zm-.22-.1h0s0,0,0,0Z" transform="translate(-679.2 -42.66)"/><path id="패스_5102" data-name="패스 5102" class="cls-7" d="M737.17,173.89a.67.67,0,0,0,.18.45s.19.1.2.16-.09.16-.1.24,0,.08.07,0,.2-.25.13-.36-.18-.11-.24-.18a1.55,1.55,0,0,1-.19-.36s0,0,0,0,0,0,0,0Z" transform="translate(-679.2 -42.66)"/><path id="패스_5103" data-name="패스 5103" class="cls-11" d="M738.76,179.63a.15.15,0,0,1-.1.17.16.16,0,0,1-.17-.1.14.14,0,0,1,.1-.17.13.13,0,0,1,.17.1Z" transform="translate(-679.2 -42.66)"/><path id="패스_5104" data-name="패스 5104" class="cls-11" d="M739,180.32a.15.15,0,0,1-.1.17.14.14,0,0,1-.17-.1.14.14,0,0,1,.1-.17h0A.15.15,0,0,1,739,180.32Z" transform="translate(-679.2 -42.66)"/><path id="패스_5105" data-name="패스 5105" class="cls-11" d="M739.22,181.06a.13.13,0,0,1-.1.16.13.13,0,0,1-.17-.1.13.13,0,0,1,.1-.16.14.14,0,0,1,.17.1Z" transform="translate(-679.2 -42.66)"/><path id="패스_5106" data-name="패스 5106" class="cls-18" d="M737.14,175.54a.43.43,0,0,0,.37.14.51.51,0,0,0,.27-.32.1.1,0,0,0-.07-.12.15.15,0,0,0-.09,0,.75.75,0,0,1-.09.15c-.11.1-.19,0-.27,0s-.21.08-.12.15Z" transform="translate(-679.2 -42.66)"/><path id="패스_5107" data-name="패스 5107" class="cls-14" d="M737.37,173.32a.83.83,0,0,1,.32-.13c.09,0,.06-.13,0-.14a.47.47,0,0,0-.4.15c-.06.06,0,.18.1.12Z" transform="translate(-679.2 -42.66)"/><path id="패스_5108" data-name="패스 5108" class="cls-14" d="M736.37,173.43a.48.48,0,0,0-.42,0,.08.08,0,0,0,0,.14.69.69,0,0,1,.35,0c.09,0,.1-.13,0-.15Z" transform="translate(-679.2 -42.66)"/></g></g></g></g><path id="패스_5109" data-name="패스 5109" class="cls-19" d="M741.43,165.24,737,166.35a2.13,2.13,0,0,0-4.1,1l-4.43,1.11a1.75,1.75,0,0,0-1.27,2.13l4.55,18.11a1.74,1.74,0,0,0,2.12,1.27l13-3.26a1.74,1.74,0,0,0,1.27-2.12l-4.55-18.11A1.74,1.74,0,0,0,741.43,165.24Zm-6.8.33a.54.54,0,1,1-.4.66.54.54,0,0,1,.4-.66Zm12.47,19.3a.71.71,0,0,1-.52.87l-13,3.25a.71.71,0,0,1-.87-.52l-4.55-18.1a.7.7,0,0,1,.52-.87l13-3.26a.72.72,0,0,1,.87.52Z" transform="translate(-679.2 -42.66)"/></g><path id="패스_5110" data-name="패스 5110" class="cls-19" d="M742,167.35,731,178.41l1,3.77,10.91-10.91Z" transform="translate(-679.2 -42.66)"/><path id="패스_5111" data-name="패스 5111" class="cls-19" d="M743.16,171.83l-10.93,11.06.31,1.05L743.45,173Z" transform="translate(-679.2 -42.66)"/></g><path id="패스_5112" data-name="패스 5112" class="cls-12" d="M715.36,128.43l13.27,3.93,2.79,6.64,1.53-6.77,11.16-5.07,5.49,5.57-11,13.48-4.54-10.78-2.47,4.42-3.54-4.4L724.3,146l-14.37-10.17Z" transform="translate(-679.2 -42.66)"/></g><path id="패스_5113" data-name="패스 5113" class="cls-18" d="M725.58,104.61c.63,1.32,3.41,2.17,4.77,2.28,2.14.18,5.2-1.16,6.18-3.13.28-.56-.39-.94-.84-.69-1.7,1-3.52,2.64-5.6,2.38-1.34-.17-2.55-1-3.79-1.51-.39-.15-.93.22-.71.67Z" transform="translate(-679.2 -42.66)"/></g></g></g></g></svg>