<svg id="레이어_3" data-name="레이어 3" xmlns="http://www.w3.org/2000/svg" xmlns:xlink="http://www.w3.org/1999/xlink" viewBox="0 0 143 154.05">
  <defs>
    <style>
      .cls-1 {
        fill: none;
      }

      .cls-2 {
        fill: #e8e8e8;
      }

      .cls-3 {
        clip-path: url(#clip-path);
      }

      .cls-4 {
        opacity: 0.7;
      }

      .cls-5 {
        fill: #ffd2bd;
      }

      .cls-6 {
        fill: #dea49f;
      }

      .cls-7 {
        fill: #ffdbc7;
      }

      .cls-8 {
        fill: #f1f1f1;
      }

      .cls-9 {
        fill: #454a56;
      }

      .cls-10 {
        fill: #343942;
      }

      .cls-11 {
        fill: #de908b;
      }

      .cls-12 {
        fill: #595c72;
      }

      .cls-13 {
        fill: #753643;
      }

      .cls-14 {
        fill: #923643;
      }

      .cls-15 {
        clip-path: url(#clip-path-2);
      }

      .cls-16 {
        fill: #d4a77c;
      }

      .cls-17 {
        fill: #d9ac6a;
      }

      .cls-18 {
        fill: #fff;
      }
    </style>
    <clipPath id="clip-path" transform="translate(21.16)">
      <rect class="cls-1" x="0.32" width="100" height="100" rx="5"/>
    </clipPath>
    <clipPath id="clip-path-2" transform="translate(21.16)">
      <path class="cls-1" d="M59.43,140.33c-.22-2.52-4.48-36.77-5.63-44.81l.33-.13c1.18-.48.7-2.45.93-3.73.1-.58.16-3.06-.42-3.63-.86-.85-1.42-.93-3.81-1-1.58,0-4.45-.27-4.95,1.9A8,8,0,0,0,46,91.85c.14.73.06,2.42.46,2.83a2.9,2.9,0,0,0,.6.44c-1.29,9.41-3.06,43.61-2.89,45.17.31,2.92,4.94,10.73,8.19,13.72C54.44,152,59.63,142.56,59.43,140.33Z"/>
    </clipPath>
  </defs>
  <g id="레이어_2" data-name="레이어 2">
    <g id="레이어_1-2" data-name="레이어 1-2">
      <g id="남_off" data-name="남 off">
        <g id="box">
          <rect id="bg-2" class="cls-2" x="21.48" width="100" height="100" rx="5"/>
        </g>
        <g class="cls-3">
          <g id="마스크_그룹_23" data-name="마스크 그룹 23">
            <g id="그룹_2008" data-name="그룹 2008" class="cls-4">
              <g id="그룹_2002" data-name="그룹 2002">
                <path id="패스_4960" data-name="패스 4960" class="cls-5" d="M89.43,108.93c1.65,10.69-22.9,18.33-32.37,22.81-8.38,4-17.12.86-23.92-4.75-5.24-4.31-27-4.65-22.58-10.39C15.84,109.83,23.84,99.09,28,93.73c2.61-3.3,6.54-18.79,6.42-20.9,2.58,2.69,9.69,5,13.06,6.54,4.09,1.94,13.65,1.3,19.29,0a28.39,28.39,0,0,0,5.46,12.56C81,102.47,88.75,104.49,89.43,108.93Z" transform="translate(21.16)"/>
                <path id="패스_4961" data-name="패스 4961" class="cls-6" d="M64,49.58c1,4.6.54,8.2.7,12.58a89.83,89.83,0,0,0,2.15,17.21c-7.39,2.38-15.48,2.89-20.08,1.27-3.51-1.26-9.7-4.43-12.27-7.81-.29-5.12-.35-15-1.58-19.82,2.59-3.58,10.2-4.78,14.83-6.13A18.76,18.76,0,0,1,64,49.58Z" transform="translate(21.16)"/>
                <path id="패스_4962" data-name="패스 4962" class="cls-7" d="M63.32,47.81A5.21,5.21,0,0,1,64,49.59a18.74,18.74,0,0,0-16.3-2.71c-4.62,1.35-9.21,7.1-11.81,10.67-.53-2.09-1-7.35-1.43-9.35,2.18-2.93,10-4.27,13.84-4.28C52.46,43.92,60.89,44.25,63.32,47.81Z" transform="translate(21.16)"/>
              </g>
              <path id="패스_4963" data-name="패스 4963" class="cls-5" d="M76.22,43.19c-1.4-1.86-3.73-3-5.56-.89,5-7.48,1.77-13.6-2.21-19.11-5.13-7.09-17.61-6.5-25.67-5.25-6.27,1-12.63,3.76-15.1,9.31-2.13,4.79-4.12,10.45.52,16.1-3.26-2.5-7.27.6-6.93,5.33.28,3.91,5.57,11.38,8.66,7.32.54,5.78,2.35,9.83,5.21,12.19,7,5.77,10.34,7.64,15.77,7.64,4.88,0,10.41-3.8,15.71-9.14,2.2-2.2,2.7-7.07,3-10.63,3.92,2.17,6.4-1.5,7.37-4.54C77.84,49,77.75,45.24,76.22,43.19Z" transform="translate(21.16)"/>
              <path id="패스_4964" data-name="패스 4964" class="cls-6" d="M23.54,49.39c.25-.7.22-2.66,1.14-2.82s1.61,1.14,2,1.7a8.16,8.16,0,0,1,1,2.21c.1.41.22,1.13-.37,1-.4-.1-.62-.49-1.07-.56a.72.72,0,0,0-.88.5c-.6,1.88,2.3,2.66,3.39,1.43,1.24-1.39,0-3.52-.78-4.81-.66-1.1-1.8-2.75-3.27-2.62-1.82.18-2.12,2.61-1.7,4a.31.31,0,0,0,.38.21h0a.3.3,0,0,0,.2-.21Z" transform="translate(21.16)"/>
              <path id="패스_4965" data-name="패스 4965" class="cls-6" d="M75.75,47.49c.39-1.35-.57-3.17-2.13-2.9A2.72,2.72,0,0,0,71.84,46a11.36,11.36,0,0,0-1.54,3c-.39,1.36.35,4,2.22,3.54a2.67,2.67,0,0,0,1.66-3.38h0a.62.62,0,0,0-.85-.2.63.63,0,0,0-.3.51c0,.48-.17,1.43-.66,1.66s-.75-.56-.83-1a3.26,3.26,0,0,1,.45-2,6.74,6.74,0,0,1,1.32-2.33c1.3-1.12,1.7.86,1.91,1.71a.27.27,0,0,0,.33.18h0A.27.27,0,0,0,75.75,47.49Z" transform="translate(21.16)"/>
              <path id="패스_4966" data-name="패스 4966" class="cls-8" d="M29.84,87.92a55.3,55.3,0,0,0-1.52,11.81c-.18,4.36,1,9.6,3,15h37.2c1.85-6.17,3-12.18,2.78-17.17-.31-6.88-1-7-1.79-11.82l-19.39-.2-19.64.62S30.27,86.83,29.84,87.92Z" transform="translate(21.16)"/>
              <path id="패스_4967" data-name="패스 4967" class="cls-9" d="M74.84,42c1.26-5.3,2.11-8.3,2.24-12.25.16-4.94-.36-11.29-3.32-15.33C71,10.58,68.42,7.89,62.2,8.12c0,0-4.91-8.06-22.15-4-8,1.9-13.6,8.24-17.38,15.51-2.93,5.67-1.58,17.27,1.66,22.9,0,0,3.46-1.31,5.76,4.73,0,0-6.53-24.19,11.8-29l.88.73,1-1.1a28.68,28.68,0,0,1,5.56-.16S73.74,15.38,69.53,45c0,0,.86-4.24,3.77-3.75Z" transform="translate(21.16)"/>
              <path id="패스_4968" data-name="패스 4968" class="cls-9" d="M26.37,40.5c6.41,1.15,8.36-6.66,9.32-11.26,1-5,2.16-7.48,6.56-10.22-.67-1-1.12-3.21-2.27-3.57-3.5-1.07-6.4.45-8.68,3.14-4,4.69-5.46,11.73-4.54,17.72C27,37.75,27.49,39.6,26.37,40.5Z" transform="translate(21.16)"/>
              <path id="패스_4969" data-name="패스 4969" class="cls-9" d="M44.52,16.42c-.5.86-1,1.83-1.4,2.7,4.06-1.57,9.83.58,11.93,4.48,1.66,3.09.67,5.76,1.5,9,.46,1.79,2.62,4,4.8,4C59.92,34.71,59,33.2,59,31a16.66,16.66,0,0,0-.74-5.57,7.85,7.85,0,0,1,2.07,3.73c1,3.06,1.11,5.27,3.56,7.73a9.84,9.84,0,0,0,8.44,2.46c1.22-.2,1,0,.91-1.07s-.68-2.48-.89-3.66c-.27-1.57-.53-3.13-.78-4.7-.6-3.53-1.24-6.81-3.24-9.87-2.14-3.26-5.47-8.14-9.43-9.34a11.93,11.93,0,0,0-12,2.89A14.89,14.89,0,0,0,44.52,16.42Z" transform="translate(21.16)"/>
              <path id="패스_4970" data-name="패스 4970" class="cls-10" d="M58.46,45.12a1.39,1.39,0,0,1,.1-.33,3.14,3.14,0,0,0-.33-1.65,1,1,0,0,0-1.36-.39l0,0h-.06a1,1,0,0,0-.34.34,3.07,3.07,0,0,0-.34,1.39,2.29,2.29,0,0,0,.16,1,1,1,0,0,0,1,.88c.23,0,.32-.17.48-.25l.13-.07a1.31,1.31,0,0,0,.51-.67c0-.06.09-.07.1-.13S58.45,45.18,58.46,45.12Z" transform="translate(21.16)"/>
              <path id="패스_4971" data-name="패스 4971" class="cls-10" d="M43.62,44.7a3.55,3.55,0,0,0-.09-.47v-.15a1.74,1.74,0,0,0-.5-1,1,1,0,0,0-1.41,0h0a.82.82,0,0,0-.24.41,2.64,2.64,0,0,0,.42,2.72,1,1,0,0,0,1,.16h0c.19-.07.4-.12.5-.33v-.18A2,2,0,0,0,43.62,44.7Z" transform="translate(21.16)"/>
              <path id="패스_4972" data-name="패스 4972" class="cls-9" d="M36.65,37.28c2.46-.59,5.21-1,7.48.48,1.11.7,2.16-1.08,1-1.77-2.71-1.66-6.23-1.19-8.92.3a.53.53,0,0,0-.3.7.55.55,0,0,0,.71.3h0Z" transform="translate(21.16)"/>
              <path id="패스_4973" data-name="패스 4973" class="cls-9" d="M62.73,36.29c-2.69-1.5-6.21-2-8.92-.3-1.12.69-.09,2.47,1,1.77,2.27-1.43,5-1.07,7.48-.49a.54.54,0,0,0,.41-1Z" transform="translate(21.16)"/>
              <path id="패스_4974" data-name="패스 4974" class="cls-6" d="M51.57,39.81c-3.25,5.76,1.75,11.19-.31,16.92-.28.76.78,1,1.18.5a6.12,6.12,0,0,0,.8-6.15c-1.27-3.77-2.19-7-1-11a.37.37,0,0,0-.28-.44.36.36,0,0,0-.39.16Z" transform="translate(21.16)"/>
              <path id="패스_4975" data-name="패스 4975" class="cls-11" d="M45,60.62c.49,1.38,3.18,2.5,4.53,2.75,2.11.39,5.3-.65,6.48-2.51.33-.53-.3-1-.78-.78-1.79.78-3.77,2.3-5.82,1.83-1.33-.3-2.44-1.3-3.63-1.89C45.37,59.84,44.75,60.15,45,60.62Z" transform="translate(21.16)"/>
              <g id="그룹_2003" data-name="그룹 2003">
                <path id="패스_4976" data-name="패스 4976" class="cls-12" d="M68.52,114.78h53.32c-.38-.89-.72-1.81-1.14-2.68-1.82-3.87-3.64-8.14-7.36-10.56-4.81-3.14-11.47-2.79-16.91-3.94-9.29-2-18.4-5.55-25.95-11.37-.7-.54-.94-.45-.94-.45.84,4.85,1.48,5,1.79,11.83C71.53,102.6,70.37,108.6,68.52,114.78Z" transform="translate(21.16)"/>
              </g>
              <g id="그룹_2004" data-name="그룹 2004">
                <path id="패스_4977" data-name="패스 4977" class="cls-12" d="M32.12,114.78H-21.16c.38-.89.71-1.81,1.13-2.68,1.87-3.87,3.64-8.1,7.36-10.56C-7.86,98.4-1.16,98.75,4.25,97.6c9.28-2,18.4-5.55,25.94-11.37.7-.54.94-.45.94-.45-.84,4.85-1.47,5-1.79,11.83C29.11,102.6,30.32,108.6,32.12,114.78Z" transform="translate(21.16)"/>
              </g>
              <g id="그룹_2007" data-name="그룹 2007">
                <path id="패스_4978" data-name="패스 4978" class="cls-13" d="M47.32,93.71c-1.29,6.5-3.3,45-3.13,46.62.31,2.92,5,10.74,8.2,13.72,2-2.1,7.24-11.49,7-13.72-.24-2.7-5.12-41.88-5.83-46.12C53.42,93.12,48.14,93,47.32,93.71Z" transform="translate(21.16)"/>
                <path id="패스_4979" data-name="패스 4979" class="cls-14" d="M45.84,89A8,8,0,0,0,46,91.92c.14.72.06,2.41.46,2.83a5.15,5.15,0,0,0,1.91,1,13.1,13.1,0,0,0,3.75.12,5.53,5.53,0,0,0,2-.44c1.18-.48.7-2.45.93-3.73.1-.58.16-3.07-.42-3.64-.86-.84-1.42-.93-3.81-1C49.25,87.06,46.38,86.8,45.84,89Z" transform="translate(21.16)"/>
                <g id="그룹_2006" data-name="그룹 2006">
                  <g class="cls-15">
                    <g id="그룹_2005" data-name="그룹 2005">
                      <path id="패스_4980" data-name="패스 4980" class="cls-16" d="M61.92,151.82c-3.25,0-6.65-2-9.37-3.63l-.1-.06c-5-3-9.34-7.52-13.22-12l.72-.62c3.83,4.42,8,8.91,13,11.8l.1.06c2.63,1.54,5.9,3.46,8.91,3.5Z" transform="translate(21.16)"/>
                      <path id="패스_4981" data-name="패스 4981" class="cls-16" d="M64.42,146.15a12.48,12.48,0,0,0-3.1-1.21c-.58-.17-1.14-.33-1.64-.52a30,30,0,0,1-7.07-3.75A56.23,56.23,0,0,1,44.75,134c-.24-.25-.52-.58-.83-.94a9.72,9.72,0,0,0-2-2l.47-.82a9.94,9.94,0,0,1,2.3,2.23c.29.34.56.66.78.89a54,54,0,0,0,7.72,6.52,29.12,29.12,0,0,0,6.86,3.64c.48.18,1,.34,1.57.5A12.67,12.67,0,0,1,65,145.35Z" transform="translate(21.16)"/>
                      <path id="패스_4982" data-name="패스 4982" class="cls-16" d="M64.22,139.47c-.8-.36-1.64-.65-2.46-.93-.56-.2-1.12-.39-1.68-.6a35.42,35.42,0,0,1-8.3-4.75,56.8,56.8,0,0,1-8-7.42l-.29-.31a5.73,5.73,0,0,1-1.08-1.37l.84-.44a5.11,5.11,0,0,0,.92,1.15l.31.33a57,57,0,0,0,7.91,7.3,34.38,34.38,0,0,0,8.07,4.62c.55.21,1.1.4,1.65.59a21.25,21.25,0,0,1,2.54,1Z" transform="translate(21.16)"/>
                      <path id="패스_4983" data-name="패스 4983" class="cls-16" d="M63,130.1A36.66,36.66,0,0,1,49.32,124a43.64,43.64,0,0,1-6.23-6l-.51-.54a4.44,4.44,0,0,1-1-1.28l.87-.39a3.93,3.93,0,0,0,.77,1l.52.56a42.59,42.59,0,0,0,6.1,5.83,35.56,35.56,0,0,0,13.29,5.92Z" transform="translate(21.16)"/>
                      <path id="패스_4984" data-name="패스 4984" class="cls-16" d="M61,122.69c-6-1.13-12.31-5.37-18.62-12.59l.71-.62c6.17,7,12.26,11.18,18.09,12.27Z" transform="translate(21.16)"/>
                      <path id="패스_4985" data-name="패스 4985" class="cls-16" d="M60.68,116.51c-6-2.6-14-7.17-17.44-14.23l.85-.42c3.54,7.16,12.15,11.7,17,13.78Z" transform="translate(21.16)"/>
                      <path id="패스_4986" data-name="패스 4986" class="cls-16" d="M61.42,109.72c-7.75-1.72-13.1-8.28-17.52-14.29l.77-.57c4.31,5.88,9.53,12.28,17,13.93Z" transform="translate(21.16)"/>
                      <path id="패스_4987" data-name="패스 4987" class="cls-16" d="M61.18,102.48a28.46,28.46,0,0,1-4.5-1.64,33.65,33.65,0,0,1-13.16-12l.81-.49A32.68,32.68,0,0,0,57.09,100a27.94,27.94,0,0,0,4.35,1.59Z" transform="translate(21.16)"/>
                      <path id="패스_4988" data-name="패스 4988" class="cls-16" d="M58.53,97a25.52,25.52,0,0,1-10-7.43l-.61-.68a16.38,16.38,0,0,1-3.23-4.55l.93-.34a15.6,15.6,0,0,0,3,4.25c.22.24.43.48.61.7a24.34,24.34,0,0,0,9.61,7.17Z" transform="translate(21.16)"/>
                      <path id="패스_4989" data-name="패스 4989" class="cls-17" d="M58.61,93.42a21.42,21.42,0,0,1-5.87-4.53l-1.25-1.2-.88-.79A12.35,12.35,0,0,1,47.32,83l.86-.39a11.67,11.67,0,0,0,3.1,3.57c.31.27.62.54.9.81l1.27,1.21a20.41,20.41,0,0,0,5.6,4.34Z" transform="translate(21.16)"/>
                    </g>
                  </g>
                </g>
              </g>
              <path id="패스_4991" data-name="패스 4991" class="cls-18" d="M33.24,78.07l16.86,6.8L66.84,77.7l3.09,7.73L56.53,97.61l-6.41-11-4.8,11-15.89-10Z" transform="translate(21.16)"/>
            </g>
          </g>
        </g>
      </g>
    </g>
  </g>
</svg>
