<svg xmlns="http://www.w3.org/2000/svg" width="15.998" height="12" viewBox="0 0 15.998 12"><g transform="translate(0.002 -4.497)"><path d="M2.852,14.638a.5.5,0,0,0-.708,0l-2,1.989a.5.5,0,0,0,0,.7.5.5,0,0,0,.708,0L2.5,15.694l1.646,1.638a.5.5,0,0,0,.708,0,.5.5,0,0,0,0-.7l-2-1.989Zm13-.995a.5.5,0,0,0-.708,0L13.5,15.282,11.85,13.644a.5.5,0,0,0-.708,0,.5.5,0,0,0,0,.7l2,1.989a.5.5,0,0,0,.708,0l2-1.989a.5.5,0,0,0,0-.7Z" transform="translate(0 -4.99)" fill-rule="evenodd"/><path d="M10.509,5.5a5,5,0,0,0-4.2,2.272.5.5,0,0,1-.838-.546A6.011,6.011,0,0,1,16.518,10.5a.5.5,0,0,1-1,0,5,5,0,0,0-5.008-5ZM5,10a.5.5,0,0,1,.5.5,5.009,5.009,0,0,0,9.206,2.727.5.5,0,1,1,.838.546A6.011,6.011,0,0,1,4.5,10.5.5.5,0,0,1,5,10Z" transform="translate(-2.512 0)" fill-rule="evenodd"/></g></svg>