<svg xmlns="http://www.w3.org/2000/svg" width="12" height="14.602" viewBox="0 0 12 14.602"><g transform="translate(-4.5 0.605)"><path d="M5.67,9.2a5,5,0,0,1,7.1-3.16.5.5,0,1,0,.454-.892A6,6,0,1,0,15.954,8a.5.5,0,0,0-.91.417A5,5,0,1,1,5.67,9.2Z" transform="translate(0 -2.498)" fill-rule="evenodd"/><ellipse cx="2.048" cy="2" rx="2.048" ry="2" transform="translate(10.989 0.549) rotate(14)" fill="#fff"/><path d="M18.147.145a.5.5,0,0,1,.707,0l2.5,2.5a.5.5,0,0,1,0,.708l-2.5,2.5a.5.5,0,0,1-.707-.708L20.293,3,18.147.853a.5.5,0,0,1,0-.708Z" transform="matrix(0.974, -0.225, 0.225, 0.974, -10.565, 4.233)" fill-rule="evenodd"/></g></svg>